<mxfile host="app.diagrams.net" modified="2023-05-31T02:27:44.463Z" agent="Mozilla/5.0 (Windows NT 10.0; Win64; x64) AppleWebKit/537.36 (KHTML, like Gecko) Chrome/113.0.0.0 Safari/537.36" version="21.1.8" etag="N2vG3LllmKx2ZawaL8kn" type="github">
  <diagram name="PÃ¡gina-1" id="281py54qcrrBOawVCtwz">
    <mxGraphModel>
      <root>
        <mxCell id="0" />
        <mxCell id="1" parent="0" />
      </root>
    </mxGraphModel>
  </diagram>
</mxfile>
